<?xml version="1.0" encoding="utf-8"?>
<svg xmlns="http://www.w3.org/2000/svg" viewBox="123.7029 18.9476 26.4643 31.8272" width="26.4643px" height="31.8272px"><g transform="matrix(0.012033000588417053, 0, 0, -0.012429001741111279, 123.7149429321289, 50.74994659423828)" fill="#000000" stroke="none" id="object-0" style=""><path d="M915 2544 c-298 -53 -573 -235 -735 -485 -69 -108 -111 -203 -148 -338 l-27 -96 -3 -814 -3 -813 148 133 c81 73 208 187 280 252 l133 120 0 142 c0 128 2 143 20 163 11 12 33 24 48 28 47 10 48 12 4 13 -44 1 -71 -17 -98 -65 -10 -17 -14 -15 -43 31 -51 80 -74 172 -69 268 5 84 34 178 66 216 17 20 19 19 127 -45 123 -72 158 -79 184 -33 13 24 13 29 -1 51 -9 14 -66 53 -126 88 l-110 63 16 34 c9 18 19 33 23 33 4 0 58 -29 119 -65 61 -36 120 -65 131 -65 25 0 59 34 59 60 0 29 -23 48 -138 114 -56 32 -105 62 -108 67 -5 8 2 25 24 57 6 9 35 -3 118 -51 60 -35 117 -66 127 -70 39 -15 90 36 74 75 -2 7 -59 44 -126 83 -66 38 -121 75 -121 81 0 7 20 39 45 73 49 66 122 120 204 152 250 94 535 -65 592 -332 14 -64 6 -177 -16 -239 -9 -25 -91 -175 -183 -335 -133 -231 -179 -302 -227 -350 -96 -99 -215 -143 -350 -132 -38 4 -80 9 -92 13 -23 6 -23 5 -23 -98 l0 -105 73 -21 c127 -37 200 -45 360 -39 164 5 249 22 383 78 172 71 367 230 473 384 218 315 260 711 112 1066 -93 223 -296 440 -516 551 -200 101 -463 141 -680 102z" style="fill: rgb(255, 255, 255);"/></g></svg>